<?xml version="1.0" standalone="no"?>
<!DOCTYPE svg PUBLIC "-//W3C//DTD SVG 20010904//EN"
 "http://www.w3.org/TR/2001/REC-SVG-20010904/DTD/svg10.dtd">
<svg version="1.0" xmlns="http://www.w3.org/2000/svg"
 width="62.000000pt" height="49.000000pt" viewBox="0 0 62.000000 49.000000"
 preserveAspectRatio="xMidYMid meet">
<metadata>
Created by potrace 1.16, written by Peter Selinger 2001-2019
</metadata>
<g transform="translate(0.000000,49.000000) scale(0.100000,-0.100000)"
fill="#000000" stroke="none">
<path d="M84 470 c-26 -14 -45 -33 -58 -60 -11 -22 -17 -43 -13 -46 3 -3 23
-8 45 -11 37 -5 41 -3 56 26 10 18 24 31 35 31 27 0 83 -58 74 -75 -14 -23
-204 -195 -216 -195 -16 0 24 -37 49 -44 14 -4 36 4 68 26 l48 31 77 -23 c42
-13 88 -24 104 -24 18 -1 27 -6 27 -17 0 -24 52 -77 83 -84 16 -4 42 1 72 14
38 17 50 29 67 67 20 46 20 49 3 80 -9 17 -28 37 -41 45 l-24 13 25 26 c41 42
34 60 -24 60 -47 0 -52 -2 -98 -55 -63 -70 -128 -101 -178 -85 -22 7 -35 18
-35 29 0 16 122 141 213 218 44 38 46 50 11 63 -40 16 -47 13 -114 -41 -57
-45 -68 -50 -99 -45 -41 6 -81 33 -97 65 -16 32 -17 32 -60 11z"/>
</g>
</svg>
